<svg xmlns="http://www.w3.org/2000/svg" viewBox="0 0 859 554" width="859" height="554" font-family="'JetBrains Mono', 'Fira Code', 'Courier New', monospace">
  <defs>
    <linearGradient id="bgGrad" x1="0%" y1="0%" x2="100%" y2="100%">
      <stop offset="0%" style="stop-color:#080d1a;stop-opacity:1" />
      <stop offset="100%" style="stop-color:#0d1525;stop-opacity:1" />
    </linearGradient>
    <filter id="cyanGlow" x="-30%" y="-30%" width="160%" height="160%">
      <feGaussianBlur stdDeviation="4" result="blur"/>
      <feMerge><feMergeNode in="blur"/><feMergeNode in="SourceGraphic"/></feMerge>
    </filter>
    <marker id="arrowCyan" markerWidth="8" markerHeight="8" refX="6" refY="3" orient="auto">
      <path d="M0,0 L0,6 L8,3 z" fill="#00e5ff" opacity="0.7"/>
    </marker>
    <marker id="arrowGreen" markerWidth="8" markerHeight="8" refX="6" refY="3" orient="auto">
      <path d="M0,0 L0,6 L8,3 z" fill="#22c55e" opacity="0.8"/>
    </marker>
    <linearGradient id="borderCyan" x1="0%" y1="0%" x2="0%" y2="100%">
      <stop offset="0%" style="stop-color:#00e5ff;stop-opacity:0.6" />
      <stop offset="100%" style="stop-color:#00e5ff;stop-opacity:0.1" />
    </linearGradient>
    <linearGradient id="borderGreen" x1="0%" y1="0%" x2="0%" y2="100%">
      <stop offset="0%" style="stop-color:#22c55e;stop-opacity:0.6" />
      <stop offset="100%" style="stop-color:#22c55e;stop-opacity:0.1" />
    </linearGradient>
    <linearGradient id="borderBlue" x1="0%" y1="0%" x2="0%" y2="100%">
      <stop offset="0%" style="stop-color:#3b82f6;stop-opacity:0.6" />
      <stop offset="100%" style="stop-color:#3b82f6;stop-opacity:0.1" />
    </linearGradient>
    <linearGradient id="headerGrad" x1="0%" y1="0%" x2="100%" y2="0%">
      <stop offset="0%" style="stop-color:#00e5ff;stop-opacity:0.12" />
      <stop offset="50%" style="stop-color:#3b82f6;stop-opacity:0.08" />
      <stop offset="100%" style="stop-color:#00e5ff;stop-opacity:0.12" />
    </linearGradient>
  </defs>

  <!-- Background -->
  <rect width="859" height="554" fill="url(#bgGrad)" rx="14"/>

  <!-- Subtle grid -->
  <g opacity="0.035" stroke="#00e5ff" stroke-width="1">
    <line x1="0" y1="55" x2="859" y2="55"/>
    <line x1="0" y1="110" x2="859" y2="110"/>
    <line x1="0" y1="165" x2="859" y2="165"/>
    <line x1="0" y1="220" x2="859" y2="220"/>
    <line x1="0" y1="275" x2="859" y2="275"/>
    <line x1="0" y1="330" x2="859" y2="330"/>
    <line x1="0" y1="385" x2="859" y2="385"/>
    <line x1="0" y1="440" x2="859" y2="440"/>
    <line x1="0" y1="495" x2="859" y2="495"/>
    <line x1="86" y1="0" x2="86" y2="554"/>
    <line x1="172" y1="0" x2="172" y2="554"/>
    <line x1="258" y1="0" x2="258" y2="554"/>
    <line x1="344" y1="0" x2="344" y2="554"/>
    <line x1="430" y1="0" x2="430" y2="554"/>
    <line x1="516" y1="0" x2="516" y2="554"/>
    <line x1="602" y1="0" x2="602" y2="554"/>
    <line x1="688" y1="0" x2="688" y2="554"/>
    <line x1="774" y1="0" x2="774" y2="554"/>
  </g>

  <!-- TOP HEADER BAR -->
  <rect x="20" y="16" width="819" height="36" rx="7" fill="url(#headerGrad)" stroke="#00e5ff" stroke-opacity="0.18" stroke-width="1"/>
  <text x="36" y="39" fill="#00e5ff" font-size="10.5" opacity="0.6" letter-spacing="2">OMNIPAW KERNEL</text>
  <text x="172" y="39" fill="#00e5ff" font-size="10.5" opacity="0.3">|</text>
  <text x="184" y="39" fill="#00e5ff" font-size="10.5" opacity="0.95" letter-spacing="1.5" font-weight="bold">CRYPTOGRAPHIC EXECUTION TRACE</text>
  <circle cx="810" cy="34" r="5" fill="#22c55e" opacity="0.9"/>
  <text x="796" y="38" fill="#22c55e" font-size="9" opacity="0.85" text-anchor="end" letter-spacing="1">VERIFIED</text>

  <!-- PANEL 1: State Transition -->
  <rect x="20" y="66" width="258" height="222" rx="9" fill="#0a1628" stroke="url(#borderCyan)" stroke-width="1.5"/>
  <rect x="20" y="66" width="258" height="5" rx="5" fill="#00e5ff" opacity="0.45"/>
  <text x="149" y="91" fill="#00e5ff" font-size="9.5" font-weight="bold" text-anchor="middle" opacity="0.9" letter-spacing="1.5">STATE TRANSITIONS</text>

  <rect x="34" y="100" width="230" height="38" rx="5" fill="#0f1e35" stroke="#3b82f6" stroke-width="1" stroke-opacity="0.5"/>
  <text x="47" y="115" fill="#64748b" font-size="8">STATE_ID · AGENT_INIT</text>
  <text x="47" y="129" fill="#e2e8f0" font-size="9" font-weight="bold">S0 · INIT</text>
  <text x="254" y="123" fill="#3b82f6" font-size="8" text-anchor="end" opacity="0.7">t=0ms</text>

  <line x1="149" y1="140" x2="149" y2="155" stroke="#00e5ff" stroke-width="1.5" stroke-opacity="0.5" marker-end="url(#arrowCyan)"/>
  <rect x="112" y="142" width="74" height="14" rx="3" fill="#00e5ff" fill-opacity="0.07"/>
  <text x="149" y="152" fill="#00e5ff" font-size="7.5" text-anchor="middle" opacity="0.8">hash(S0)</text>

  <rect x="34" y="157" width="230" height="38" rx="5" fill="#0f1e35" stroke="#3b82f6" stroke-width="1" stroke-opacity="0.5"/>
  <text x="47" y="172" fill="#64748b" font-size="8">STATE_ID · TOOL_CALL</text>
  <text x="47" y="186" fill="#e2e8f0" font-size="9" font-weight="bold">S1 · TOOL_EXEC</text>
  <text x="254" y="180" fill="#3b82f6" font-size="8" text-anchor="end" opacity="0.7">t=42ms</text>

  <line x1="149" y1="197" x2="149" y2="212" stroke="#00e5ff" stroke-width="1.5" stroke-opacity="0.5" marker-end="url(#arrowCyan)"/>
  <rect x="106" y="199" width="86" height="14" rx="3" fill="#00e5ff" fill-opacity="0.07"/>
  <text x="149" y="209" fill="#00e5ff" font-size="7.5" text-anchor="middle" opacity="0.8">hash(S0+S1)</text>

  <rect x="34" y="214" width="230" height="38" rx="5" fill="#0c1e12" stroke="#22c55e" stroke-width="1.5" stroke-opacity="0.7"/>
  <text x="47" y="229" fill="#86efac" font-size="8">STATE_ID · COMPLETE</text>
  <text x="47" y="243" fill="#22c55e" font-size="9" font-weight="bold">S2 · MEMORY_WRITE ✓</text>
  <text x="254" y="237" fill="#22c55e" font-size="8" text-anchor="end" opacity="0.85">t=134ms</text>

  <!-- PANEL 2: Hash Chain -->
  <rect x="294" y="66" width="271" height="222" rx="9" fill="#0a1628" stroke="url(#borderBlue)" stroke-width="1.5"/>
  <rect x="294" y="66" width="271" height="5" rx="5" fill="#3b82f6" opacity="0.45"/>
  <text x="429" y="91" fill="#3b82f6" font-size="9.5" font-weight="bold" text-anchor="middle" opacity="0.9" letter-spacing="1.5">MERKLE HASH CHAIN</text>

  <rect x="308" y="100" width="243" height="46" rx="5" fill="#0c1930" stroke="#3b82f6" stroke-width="1" stroke-opacity="0.4"/>
  <rect x="308" y="100" width="5" height="46" rx="3" fill="#3b82f6" opacity="0.55"/>
  <text x="322" y="116" fill="#64748b" font-size="7.5">BLOCK #001 · PREV: 0x0000...0000</text>
  <text x="322" y="131" fill="#00e5ff" font-size="8.5" font-weight="bold">0xa3f2c819...8c91d4e0</text>
  <text x="542" y="131" fill="#3b82f6" font-size="7.5" text-anchor="end" opacity="0.6">SHA-256</text>
  <text x="322" y="142" fill="#374151" font-size="7">tool: bash · duration: 42ms</text>

  <line x1="429" y1="148" x2="429" y2="159" stroke="#3b82f6" stroke-width="1.2" stroke-opacity="0.45" stroke-dasharray="3,2"/>

  <rect x="308" y="161" width="243" height="46" rx="5" fill="#0c1930" stroke="#3b82f6" stroke-width="1" stroke-opacity="0.4"/>
  <rect x="308" y="161" width="5" height="46" rx="3" fill="#3b82f6" opacity="0.55"/>
  <text x="322" y="177" fill="#64748b" font-size="7.5">BLOCK #002 · PREV: 0xa3f2...8c91</text>
  <text x="322" y="192" fill="#00e5ff" font-size="8.5" font-weight="bold">0x7d1eb453...4b23f901</text>
  <text x="542" y="192" fill="#3b82f6" font-size="7.5" text-anchor="end" opacity="0.6">SHA-256</text>
  <text x="322" y="203" fill="#374151" font-size="7">tool: filesystem · duration: 31ms</text>

  <line x1="429" y1="209" x2="429" y2="220" stroke="#22c55e" stroke-width="1.2" stroke-opacity="0.55" stroke-dasharray="3,2"/>

  <rect x="308" y="222" width="243" height="38" rx="5" fill="#00e5ff" fill-opacity="0.05" stroke="#00e5ff" stroke-width="1.2" stroke-opacity="0.4"/>
  <text x="322" y="237" fill="#64748b" font-size="7.5">MERKLE ROOT · ALL BLOCKS</text>
  <text x="322" y="252" fill="#00e5ff" font-size="8.5" font-weight="bold">0xDEAD1337...C0DEBEEF · VALID</text>

  <!-- PANEL 3: Invariants -->
  <rect x="581" y="66" width="258" height="222" rx="9" fill="#0a1628" stroke="url(#borderGreen)" stroke-width="1.5"/>
  <rect x="581" y="66" width="258" height="5" rx="5" fill="#22c55e" opacity="0.45"/>
  <text x="710" y="91" fill="#22c55e" font-size="9.5" font-weight="bold" text-anchor="middle" opacity="0.9" letter-spacing="1.5">INVARIANT CHECKS</text>

  <rect x="595" y="100" width="230" height="22" rx="4" fill="#0c1e12"/>
  <rect x="595" y="100" width="4" height="22" rx="2" fill="#22c55e" opacity="0.8"/>
  <text x="607" y="115" fill="#22c55e" font-size="8.5" font-weight="bold">INV-03</text>
  <text x="648" y="115" fill="#94a3b8" font-size="8.5">SharedStore Isolation · PASS</text>

  <rect x="595" y="126" width="230" height="22" rx="4" fill="#0c1e12"/>
  <rect x="595" y="126" width="4" height="22" rx="2" fill="#22c55e" opacity="0.8"/>
  <text x="607" y="141" fill="#22c55e" font-size="8.5" font-weight="bold">INV-07</text>
  <text x="648" y="141" fill="#94a3b8" font-size="8.5">Memory Quota Enforced · PASS</text>

  <rect x="595" y="152" width="230" height="22" rx="4" fill="#0c1e12"/>
  <rect x="595" y="152" width="4" height="22" rx="2" fill="#22c55e" opacity="0.8"/>
  <text x="607" y="167" fill="#22c55e" font-size="8.5" font-weight="bold">INV-09</text>
  <text x="648" y="167" fill="#94a3b8" font-size="8.5">Zombie Prevention · PASS</text>

  <rect x="595" y="178" width="230" height="22" rx="4" fill="#0c1e12"/>
  <rect x="595" y="178" width="4" height="22" rx="2" fill="#22c55e" opacity="0.8"/>
  <text x="607" y="193" fill="#22c55e" font-size="8.5" font-weight="bold">INV-15</text>
  <text x="648" y="193" fill="#94a3b8" font-size="8.5">Replay Hash Match · PASS</text>

  <rect x="595" y="204" width="230" height="22" rx="4" fill="#112213" stroke="#22c55e" stroke-width="1" stroke-opacity="0.4"/>
  <rect x="595" y="204" width="4" height="22" rx="2" fill="#22c55e" opacity="1"/>
  <text x="607" y="219" fill="#22c55e" font-size="8.5" font-weight="bold">15/15</text>
  <text x="648" y="219" fill="#22c55e" font-size="8.5" font-weight="bold">ALL INVARIANTS PASSED ✓</text>

  <rect x="595" y="234" width="230" height="40" rx="5" fill="#060d1a" stroke="#22c55e" stroke-width="1" stroke-opacity="0.3"/>
  <text x="710" y="251" fill="#22c55e" font-size="8" text-anchor="middle" opacity="0.7">KERNEL SIGNATURE</text>
  <text x="710" y="266" fill="#00e5ff" font-size="8" text-anchor="middle" font-weight="bold">0xF00DCAFE...C0DE1337</text>

  <!-- FULL-WIDTH PROOF OUTPUT PANEL -->
  <rect x="20" y="304" width="819" height="228" rx="9" fill="#0a1628" stroke="url(#borderGreen)" stroke-width="1.5"/>
  <rect x="20" y="304" width="819" height="5" rx="5" fill="#22c55e" opacity="0.35"/>

  <rect x="20" y="309" width="819" height="32" rx="0" fill="#00e5ff" fill-opacity="0.03"/>
  <text x="38" y="331" fill="#22c55e" font-size="9.5" font-weight="bold" opacity="0.9" letter-spacing="1.5">INTEGRITY PROOF OUTPUT</text>
  <text x="560" y="331" fill="#64748b" font-size="8.5">agent_id: omnipaw::core::0x1a3f</text>
  <rect x="750" y="316" width="74" height="18" rx="4" fill="#22c55e" fill-opacity="0.15" stroke="#22c55e" stroke-width="1" stroke-opacity="0.5"/>
  <text x="787" y="329" fill="#22c55e" font-size="8" text-anchor="middle" font-weight="bold">PROOF VALID</text>

  <!-- Code block -->
  <rect x="36" y="348" width="787" height="172" rx="6" fill="#060d1a" stroke="#1e2d4a" stroke-width="1"/>

  <!-- Left code column -->
  <text x="52" y="368" fill="#374151" font-size="8">01</text>
  <text x="74" y="368" fill="#22c55e" font-size="8.5">proof</text>
  <text x="106" y="368" fill="#e2e8f0" font-size="8.5">.verify({</text>

  <text x="52" y="384" fill="#374151" font-size="8">02</text>
  <text x="74" y="384" fill="#64748b" font-size="8.5">  agent_id:      </text>
  <text x="172" y="384" fill="#fbbf24" font-size="8.5">"omnipaw::core::0x1a3f"</text>

  <text x="52" y="400" fill="#374151" font-size="8">03</text>
  <text x="74" y="400" fill="#64748b" font-size="8.5">  state_root:    </text>
  <text x="172" y="400" fill="#00e5ff" font-size="8.5">"0xDEAD1337...C0DEBEEF"</text>

  <text x="52" y="416" fill="#374151" font-size="8">04</text>
  <text x="74" y="416" fill="#64748b" font-size="8.5">  transitions:   </text>
  <text x="172" y="416" fill="#a78bfa" font-size="8.5">[ S0-&gt;S1, S1-&gt;S2, S2-&gt;FINAL ]</text>

  <text x="52" y="432" fill="#374151" font-size="8">05</text>
  <text x="74" y="432" fill="#64748b" font-size="8.5">  tool_calls:    </text>
  <text x="172" y="432" fill="#a78bfa" font-size="8.5">[ bash::42ms, filesystem::31ms ]</text>

  <text x="52" y="448" fill="#374151" font-size="8">06</text>
  <text x="74" y="448" fill="#64748b" font-size="8.5">  mem_footprint: </text>
  <text x="172" y="448" fill="#fbbf24" font-size="8.5">"48.2 MB · within quota"</text>

  <text x="52" y="464" fill="#374151" font-size="8">07</text>
  <text x="74" y="464" fill="#64748b" font-size="8.5">  invariants:    </text>
  <text x="172" y="464" fill="#22c55e" font-size="8.5">15/15 · ALL PASSED</text>

  <text x="52" y="480" fill="#374151" font-size="8">08</text>
  <text x="74" y="480" fill="#64748b" font-size="8.5">  replay_match:  </text>
  <text x="172" y="480" fill="#22c55e" font-size="8.5">true · hash verified</text>

  <text x="52" y="496" fill="#374151" font-size="8">09</text>
  <text x="74" y="496" fill="#e2e8f0" font-size="8.5">})</text>

  <!-- Vertical divider -->
  <line x1="430" y1="356" x2="430" y2="510" stroke="#1e2d4a" stroke-width="1"/>

  <!-- Right code column -->
  <text x="448" y="368" fill="#374151" font-size="8">10</text>
  <text x="470" y="368" fill="#64748b" font-size="8.5">  sig_algorithm: </text>
  <text x="568" y="368" fill="#fbbf24" font-size="8.5">"ECDSA-P256"</text>

  <text x="448" y="384" fill="#374151" font-size="8">11</text>
  <text x="470" y="384" fill="#64748b" font-size="8.5">  timestamp:     </text>
  <text x="568" y="384" fill="#e2e8f0" font-size="8.5">"2026-02-26T11:04:22Z"</text>

  <text x="448" y="400" fill="#374151" font-size="8">12</text>
  <text x="470" y="400" fill="#64748b" font-size="8.5">  block_count:   </text>
  <text x="568" y="400" fill="#a78bfa" font-size="8.5">2 · chain unbroken</text>

  <text x="448" y="416" fill="#374151" font-size="8">13</text>
  <text x="470" y="416" fill="#64748b" font-size="8.5">  kernel_panic:  </text>
  <text x="568" y="416" fill="#22c55e" font-size="8.5">false · execution clean</text>

  <text x="448" y="432" fill="#374151" font-size="8">14</text>
  <text x="470" y="432" fill="#64748b" font-size="8.5">  kernel_sig:    </text>
  <text x="568" y="432" fill="#00e5ff" font-size="8.5">"0xF00DCAFE...C0DE1337"</text>

  <text x="448" y="448" fill="#374151" font-size="8">15</text>
  <text x="470" y="448" fill="#e2e8f0" font-size="8.5">})</text>

  <!-- Result highlight -->
  <rect x="448" y="458" width="357" height="22" rx="4" fill="#112213" stroke="#22c55e" stroke-width="1" stroke-opacity="0.55"/>
  <text x="460" y="473" fill="#22c55e" font-size="8.5" font-weight="bold">// ✓  PROOF_VALID · MATHEMATICAL GUARANTEE · NON-REPUDIABLE</text>

  <text x="448" y="497" fill="#374151" font-size="8">16</text>
  <text x="470" y="497" fill="#64748b" font-size="8.5">// Integrity is </text>
  <text x="558" y="497" fill="#00e5ff" font-size="8.5">cryptographically proven</text>
  <text x="694" y="497" fill="#64748b" font-size="8.5">, not logged</text>

  <!-- BOTTOM STATUS BAR -->
  <rect x="20" y="536" width="819" height="12" rx="4" fill="#00e5ff" fill-opacity="0.04" stroke="#00e5ff" stroke-opacity="0.1" stroke-width="1"/>
  <rect x="20" y="536" width="204" height="12" rx="4" fill="#22c55e" fill-opacity="0.14"/>
  <text x="122" y="546" fill="#22c55e" font-size="7.5" text-anchor="middle" opacity="0.85">STATE TRANSITIONS: 3/3 HASHED</text>
  <rect x="230" y="536" width="199" height="12" rx="4" fill="#3b82f6" fill-opacity="0.12"/>
  <text x="329" y="546" fill="#3b82f6" font-size="7.5" text-anchor="middle" opacity="0.85">HASH CHAIN: UNBROKEN · 2 BLOCKS</text>
  <rect x="435" y="536" width="199" height="12" rx="4" fill="#a78bfa" fill-opacity="0.1"/>
  <text x="534" y="546" fill="#a78bfa" font-size="7.5" text-anchor="middle" opacity="0.85">INVARIANTS: 15/15 PASSED</text>
  <rect x="640" y="536" width="199" height="12" rx="4" fill="#22c55e" fill-opacity="0.1"/>
  <text x="739" y="546" fill="#22c55e" font-size="7.5" text-anchor="middle" opacity="0.85">PROOF: VALID · NON-REPUDIABLE</text>
</svg>
