<svg xmlns="http://www.w3.org/2000/svg" viewBox="0 0 390 580" width="390" height="580" font-family="'JetBrains Mono', 'Fira Code', 'Courier New', monospace">
  <defs>
    <linearGradient id="bgGrad" x1="0%" y1="0%" x2="100%" y2="100%">
      <stop offset="0%" style="stop-color:#080d1a;stop-opacity:1"/>
      <stop offset="100%" style="stop-color:#0d1525;stop-opacity:1"/>
    </linearGradient>
    <linearGradient id="spanBar1" x1="0%" y1="0%" x2="100%" y2="0%">
      <stop offset="0%" style="stop-color:#00e5ff;stop-opacity:0.9"/>
      <stop offset="100%" style="stop-color:#00e5ff;stop-opacity:0.35"/>
    </linearGradient>
    <linearGradient id="spanBar2" x1="0%" y1="0%" x2="100%" y2="0%">
      <stop offset="0%" style="stop-color:#3b82f6;stop-opacity:0.9"/>
      <stop offset="100%" style="stop-color:#3b82f6;stop-opacity:0.35"/>
    </linearGradient>
    <linearGradient id="spanBar3" x1="0%" y1="0%" x2="100%" y2="0%">
      <stop offset="0%" style="stop-color:#a78bfa;stop-opacity:0.9"/>
      <stop offset="100%" style="stop-color:#a78bfa;stop-opacity:0.35"/>
    </linearGradient>
    <linearGradient id="spanBar4" x1="0%" y1="0%" x2="100%" y2="0%">
      <stop offset="0%" style="stop-color:#22c55e;stop-opacity:0.9"/>
      <stop offset="100%" style="stop-color:#22c55e;stop-opacity:0.35"/>
    </linearGradient>
    <linearGradient id="spanBar5" x1="0%" y1="0%" x2="100%" y2="0%">
      <stop offset="0%" style="stop-color:#f59e0b;stop-opacity:0.9"/>
      <stop offset="100%" style="stop-color:#f59e0b;stop-opacity:0.35"/>
    </linearGradient>
    <linearGradient id="metricLine" x1="0%" y1="0%" x2="100%" y2="0%">
      <stop offset="0%" style="stop-color:#00e5ff;stop-opacity:0"/>
      <stop offset="15%" style="stop-color:#00e5ff;stop-opacity:1"/>
      <stop offset="85%" style="stop-color:#00e5ff;stop-opacity:1"/>
      <stop offset="100%" style="stop-color:#00e5ff;stop-opacity:0"/>
    </linearGradient>
    <filter id="glow" x="-20%" y="-20%" width="140%" height="140%">
      <feGaussianBlur stdDeviation="2" result="blur"/>
      <feMerge><feMergeNode in="blur"/><feMergeNode in="SourceGraphic"/></feMerge>
    </filter>
    <linearGradient id="borderCyan" x1="0%" y1="0%" x2="0%" y2="100%">
      <stop offset="0%" style="stop-color:#00e5ff;stop-opacity:0.5"/>
      <stop offset="100%" style="stop-color:#00e5ff;stop-opacity:0.1"/>
    </linearGradient>
    <linearGradient id="borderBlue" x1="0%" y1="0%" x2="0%" y2="100%">
      <stop offset="0%" style="stop-color:#3b82f6;stop-opacity:0.5"/>
      <stop offset="100%" style="stop-color:#3b82f6;stop-opacity:0.1"/>
    </linearGradient>
  </defs>

  <!-- Background -->
  <rect width="390" height="580" fill="url(#bgGrad)" rx="16"/>

  <!-- Subtle grid -->
  <g opacity="0.04" stroke="#00e5ff" stroke-width="1">
    <line x1="0" y1="48" x2="390" y2="48"/>
    <line x1="0" y1="96" x2="390" y2="96"/>
    <line x1="0" y1="144" x2="390" y2="144"/>
    <line x1="0" y1="192" x2="390" y2="192"/>
    <line x1="0" y1="240" x2="390" y2="240"/>
    <line x1="0" y1="288" x2="390" y2="288"/>
    <line x1="0" y1="336" x2="390" y2="336"/>
    <line x1="0" y1="384" x2="390" y2="384"/>
    <line x1="0" y1="432" x2="390" y2="432"/>
    <line x1="0" y1="480" x2="390" y2="480"/>
    <line x1="0" y1="528" x2="390" y2="528"/>
    <line x1="97" y1="0" x2="97" y2="580"/>
    <line x1="195" y1="0" x2="195" y2="580"/>
    <line x1="293" y1="0" x2="293" y2="580"/>
  </g>

  <!-- ── TOP HEADER ── -->
  <rect x="14" y="14" width="362" height="26" rx="5" fill="#00e5ff" fill-opacity="0.04" stroke="#00e5ff" stroke-opacity="0.12" stroke-width="1"/>
  <text x="24" y="31" fill="#00e5ff" font-size="9" opacity="0.55">OMNIPAW KERNEL</text>
  <text x="140" y="31" fill="#00e5ff" font-size="9" opacity="0.55">│</text>
  <text x="150" y="31" fill="#00e5ff" font-size="9" opacity="0.9">OTEL PIPELINE</text>
  <circle cx="340" cy="27" r="3.5" fill="#22c55e" opacity="0.9" filter="url(#glow)"/>
  <text x="330" y="31" fill="#22c55e" font-size="8" text-anchor="end" opacity="0.85">LIVE</text>
  <circle cx="370" cy="27" r="3.5" fill="#00e5ff" opacity="0.9" filter="url(#glow)"/>
  <text x="360" y="31" fill="#00e5ff" font-size="8" text-anchor="end" opacity="0.75">EXPORTING</text>

  <!-- ═══════ PANEL 1: Distributed Trace ═══════ -->
  <rect x="14" y="50" width="362" height="238" rx="8" fill="#0a1628" stroke="url(#borderCyan)" stroke-width="1.5"/>
  <rect x="14" y="50" width="362" height="4" rx="4" fill="#00e5ff" opacity="0.35"/>

  <text x="195" y="74" fill="#00e5ff" font-size="9" font-weight="bold" text-anchor="middle" letter-spacing="1" opacity="0.9">DISTRIBUTED TRACE · WATERFALL</text>

  <!-- Trace ID -->
  <rect x="26" y="81" width="338" height="15" rx="3" fill="#00e5ff" fill-opacity="0.05" stroke="#00e5ff" stroke-opacity="0.1" stroke-width="1"/>
  <text x="34" y="92" fill="#475569" font-size="7">TRACE:</text>
  <text x="62" y="92" fill="#00e5ff" font-size="7">4bf92f35...e0e4736</text>
  <text x="358" y="92" fill="#475569" font-size="7" text-anchor="end">134ms</text>

  <!-- Timeline ruler -->
  <line x1="130" y1="104" x2="358" y2="104" stroke="#1e2d4a" stroke-width="1"/>
  <text x="130" y="102" fill="#334155" font-size="6" text-anchor="middle">0ms</text>
  <text x="187" y="102" fill="#334155" font-size="6" text-anchor="middle">30ms</text>
  <text x="244" y="102" fill="#334155" font-size="6" text-anchor="middle">67ms</text>
  <text x="302" y="102" fill="#334155" font-size="6" text-anchor="middle">100ms</text>
  <text x="356" y="102" fill="#334155" font-size="6" text-anchor="middle">134ms</text>
  <g stroke="#1e2d4a" stroke-width="1">
    <line x1="130" y1="104" x2="130" y2="108"/>
    <line x1="187" y1="104" x2="187" y2="107"/>
    <line x1="244" y1="104" x2="244" y2="107"/>
    <line x1="302" y1="104" x2="302" y2="107"/>
    <line x1="356" y1="104" x2="356" y2="108"/>
  </g>

  <!-- Span 1: agent.execute -->
  <text x="34" y="124" fill="#94a3b8" font-size="7.5">agent.execute</text>
  <rect x="130" y="114" width="228" height="13" rx="3" fill="url(#spanBar1)" opacity="0.85"/>
  <text x="135" y="124" fill="#000d1a" font-size="6.5" font-weight="bold">agent.execute · 134ms</text>

  <!-- Span 2: tool.bash -->
  <text x="34" y="145" fill="#64748b" font-size="7">  ├ tool.bash</text>
  <rect x="143" y="135" width="80" height="12" rx="3" fill="url(#spanBar2)" opacity="0.85"/>
  <text x="148" y="144" fill="#fff" font-size="6.5" opacity="0.9">tool.bash · 42ms</text>

  <!-- Span 3: memory.read -->
  <text x="34" y="164" fill="#64748b" font-size="7">  ├ memory.read</text>
  <rect x="227" y="154" width="50" height="12" rx="3" fill="url(#spanBar3)" opacity="0.85"/>
  <text x="232" y="163" fill="#fff" font-size="6.5" opacity="0.9">mem · 22ms</text>

  <!-- Span 4: llm.inference -->
  <text x="34" y="183" fill="#64748b" font-size="7">  ├ llm.inference</text>
  <rect x="143" y="173" width="171" height="12" rx="3" fill="url(#spanBar4)" opacity="0.85"/>
  <text x="148" y="182" fill="#000d1a" font-size="6.5" font-weight="bold">llm.inference · 91ms</text>

  <!-- Span 5: tool.filesystem -->
  <text x="34" y="202" fill="#64748b" font-size="7">  └ tool.filesystem</text>
  <rect x="295" y="192" width="44" height="12" rx="3" fill="url(#spanBar5)" opacity="0.85"/>
  <text x="300" y="201" fill="#000d1a" font-size="6.5" font-weight="bold">fs · 18ms</text>

  <!-- Divider -->
  <line x1="26" y1="212" x2="370" y2="212" stroke="#1e2d4a" stroke-width="1"/>

  <!-- Attributes -->
  <text x="34" y="226" fill="#475569" font-size="7" letter-spacing="0.5">SPAN ATTRIBUTES</text>
  <g font-size="7">
    <text x="34" y="240" fill="#64748b">omnipaw.agent_id</text>
    <text x="160" y="240" fill="#fbbf24">"core::worker::0x4a"</text>
    <text x="34" y="253" fill="#64748b">omnipaw.invariants</text>
    <text x="160" y="253" fill="#22c55e">"15/15 · PASS"</text>
    <text x="34" y="266" fill="#64748b">omnipaw.replay_hash</text>
    <text x="160" y="266" fill="#00e5ff">"0xc9a4...ff02"</text>
    <text x="34" y="279" fill="#64748b">service.name</text>
    <text x="160" y="279" fill="#a78bfa">"omnipaw-kernel"</text>
  </g>

  <!-- ═══════ PANEL 2: Metrics ═══════ -->
  <rect x="14" y="300" width="362" height="190" rx="8" fill="#0a1628" stroke="url(#borderBlue)" stroke-width="1.5"/>
  <rect x="14" y="300" width="362" height="4" rx="4" fill="#3b82f6" opacity="0.35"/>

  <text x="195" y="324" fill="#3b82f6" font-size="9" font-weight="bold" text-anchor="middle" letter-spacing="1" opacity="0.9">METRICS &amp; EXPORTERS</text>

  <!-- Metric 1 -->
  <rect x="26" y="331" width="338" height="38" rx="5" fill="#0c1930" stroke="#3b82f6" stroke-opacity="0.25" stroke-width="1"/>
  <text x="36" y="344" fill="#64748b" font-size="7">omnipaw_agent_executions_total · COUNTER</text>
  <polyline points="36,361 56,357 76,359 96,351 116,353 136,347 156,349 176,343 196,346 216,340 236,342 256,336" fill="none" stroke="url(#metricLine)" stroke-width="1.5"/>
  <circle cx="256" cy="336" r="2.5" fill="#00e5ff" filter="url(#glow)"/>
  <text x="358" y="344" fill="#00e5ff" font-size="9" font-weight="bold" text-anchor="end">4,821</text>
  <text x="358" y="355" fill="#22c55e" font-size="7" text-anchor="end">↑ +12/s</text>

  <!-- Metric 2 -->
  <rect x="26" y="376" width="338" height="36" rx="5" fill="#0c1930" stroke="#a78bfa" stroke-opacity="0.25" stroke-width="1"/>
  <text x="36" y="389" fill="#64748b" font-size="7">omnipaw_tool_latency_ms · HISTOGRAM</text>
  <g opacity="0.75">
    <rect x="36" y="394" width="7" height="10" rx="1" fill="#a78bfa" opacity="0.3"/>
    <rect x="45" y="391" width="7" height="13" rx="1" fill="#a78bfa" opacity="0.45"/>
    <rect x="54" y="388" width="7" height="16" rx="1" fill="#a78bfa" opacity="0.6"/>
    <rect x="63" y="386" width="7" height="18" rx="1" fill="#a78bfa" opacity="0.75"/>
    <rect x="72" y="384" width="7" height="20" rx="1" fill="#a78bfa" opacity="0.9"/>
    <rect x="81" y="387" width="7" height="17" rx="1" fill="#a78bfa" opacity="0.7"/>
    <rect x="90" y="391" width="7" height="13" rx="1" fill="#a78bfa" opacity="0.45"/>
    <rect x="99" y="396" width="7" height="8" rx="1" fill="#a78bfa" opacity="0.3"/>
  </g>
  <text x="358" y="389" fill="#a78bfa" font-size="7.5" text-anchor="end">p50: 42ms</text>
  <text x="358" y="399" fill="#a78bfa" font-size="7.5" text-anchor="end">p95: 89ms</text>
  <text x="358" y="409" fill="#f87171" font-size="7.5" text-anchor="end">p99: 134ms</text>

  <!-- Divider -->
  <line x1="26" y1="420" x2="370" y2="420" stroke="#1e2d4a" stroke-width="1"/>
  <text x="34" y="433" fill="#475569" font-size="7" letter-spacing="0.5">NATIVE EXPORTERS</text>

  <!-- Exporter pills -->
  <!-- Jaeger -->
  <rect x="26" y="440" width="100" height="42" rx="6" fill="#0c1930" stroke="#00e5ff" stroke-opacity="0.35" stroke-width="1"/>
  <rect x="26" y="440" width="100" height="3" rx="3" fill="#00e5ff" opacity="0.4"/>
  <g transform="translate(62, 447)" filter="url(#glow)">
    <path d="M14,22 Q8,15 11,9 Q13,6 14,4 Q15,6 17,9 Q20,15 14,22Z" fill="#00e5ff" opacity="0.7"/>
  </g>
  <text x="76" y="475" fill="#00e5ff" font-size="8" font-weight="bold" text-anchor="middle">Jaeger</text>
  <text x="76" y="484" fill="#475569" font-size="6.5" text-anchor="middle">Trace UI</text>

  <!-- Zipkin -->
  <rect x="140" y="440" width="100" height="42" rx="6" fill="#0c1930" stroke="#f59e0b" stroke-opacity="0.35" stroke-width="1"/>
  <rect x="140" y="440" width="100" height="3" rx="3" fill="#f59e0b" opacity="0.4"/>
  <g transform="translate(175, 447)" filter="url(#glow)">
    <ellipse cx="15" cy="14" rx="11" ry="7" fill="#f59e0b" opacity="0.1" stroke="#f59e0b" stroke-width="1" stroke-opacity="0.6"/>
    <circle cx="15" cy="14" r="4" fill="#f59e0b" opacity="0.5"/>
    <circle cx="15" cy="14" r="2" fill="#f59e0b" opacity="0.9"/>
  </g>
  <text x="190" y="475" fill="#f59e0b" font-size="8" font-weight="bold" text-anchor="middle">Zipkin</text>
  <text x="190" y="484" fill="#475569" font-size="6.5" text-anchor="middle">Trace Store</text>

  <!-- Prometheus -->
  <rect x="254" y="440" width="122" height="42" rx="6" fill="#0c1930" stroke="#e05d44" stroke-opacity="0.4" stroke-width="1"/>
  <rect x="254" y="440" width="122" height="3" rx="3" fill="#e05d44" opacity="0.4"/>
  <g transform="translate(293, 447)" filter="url(#glow)">
    <path d="M22,22 Q15,15 18,9 Q20,6 22,4 Q24,6 26,9 Q29,15 22,22Z" fill="#e05d44" opacity="0.75"/>
    <path d="M22,20 Q17,15 19,11 Q21,8 22,7 Q23,8 25,11 Q27,15 22,20Z" fill="#e05d44" opacity="0.3"/>
  </g>
  <text x="315" y="475" fill="#e05d44" font-size="8" font-weight="bold" text-anchor="middle">Prometheus</text>
  <text x="315" y="484" fill="#475569" font-size="6.5" text-anchor="middle">Metrics &amp; Alerts</text>

  <!-- Bottom bar -->
  <rect x="14" y="500" width="362" height="66" rx="8" fill="#060e1d" stroke="#1e2d4a" stroke-width="1"/>
  <rect x="14" y="500" width="362" height="3" rx="3" fill="#22c55e" opacity="0.3"/>
  <text x="195" y="520" fill="#22c55e" font-size="7.5" text-anchor="middle" font-weight="bold">omnipaw_invariant_breaches_total</text>
  <text x="195" y="540" fill="#22c55e" font-size="28" font-weight="bold" text-anchor="middle" filter="url(#glow)">0</text>
  <text x="195" y="558" fill="#22c55e" font-size="7" text-anchor="middle" opacity="0.7">NO BREACHES DETECTED · ALL INVARIANTS PASSING</text>
</svg>
